<svg width="42" height="42" viewBox="0 0 42 42" fill="none" xmlns="http://www.w3.org/2000/svg">
<path d="M13.9995 19.25C13.6534 19.25 13.3151 19.3526 13.0273 19.5449C12.7395 19.7372 12.5152 20.0105 12.3827 20.3303C12.2503 20.6501 12.2156 21.0019 12.2831 21.3414C12.3507 21.6809 12.5173 21.9927 12.7621 22.2374C13.0068 22.4822 13.3186 22.6488 13.6581 22.7164C13.9976 22.7839 14.3494 22.7492 14.6692 22.6168C14.989 22.4843 15.2623 22.26 15.4546 21.9722C15.6469 21.6845 15.7495 21.3461 15.7495 21C15.7495 20.5359 15.5651 20.0908 15.237 19.7626C14.9088 19.4344 14.4636 19.25 13.9995 19.25ZM20.9995 19.25C20.6534 19.25 20.3151 19.3526 20.0273 19.5449C19.7395 19.7372 19.5152 20.0105 19.3827 20.3303C19.2503 20.6501 19.2156 21.0019 19.2831 21.3414C19.3507 21.6809 19.5173 21.9927 19.7621 22.2374C20.0068 22.4822 20.3186 22.6488 20.6581 22.7164C20.9976 22.7839 21.3494 22.7492 21.6692 22.6168C21.989 22.4843 22.2623 22.26 22.4546 21.9722C22.6469 21.6845 22.7495 21.3461 22.7495 21C22.7495 20.5359 22.5651 20.0908 22.237 19.7626C21.9088 19.4344 21.4636 19.25 20.9995 19.25ZM27.9995 19.25C27.6534 19.25 27.3151 19.3526 27.0273 19.5449C26.7395 19.7372 26.5152 20.0105 26.3827 20.3303C26.2503 20.6501 26.2156 21.0019 26.2831 21.3414C26.3507 21.6809 26.5173 21.9927 26.7621 22.2374C27.0068 22.4822 27.3186 22.6488 27.6581 22.7164C27.9976 22.7839 28.3494 22.7492 28.6692 22.6168C28.989 22.4843 29.2623 22.26 29.4546 21.9722C29.6469 21.6845 29.7495 21.3461 29.7495 21C29.7495 20.5359 29.5651 20.0908 29.237 19.7626C28.9088 19.4344 28.4636 19.25 27.9995 19.25ZM20.9995 3.5C18.7014 3.5 16.4258 3.95265 14.3026 4.83211C12.1794 5.71157 10.2502 7.00061 8.62515 8.62563C5.34327 11.9075 3.49952 16.3587 3.49952 21C3.48422 25.041 4.88341 28.9599 7.45452 32.0775L3.95452 35.5775C3.7117 35.8236 3.5472 36.1361 3.4818 36.4756C3.41639 36.8151 3.45301 37.1663 3.58702 37.485C3.73237 37.7999 3.968 38.0645 4.264 38.2452C4.56 38.4259 4.90302 38.5146 5.24952 38.5H20.9995C25.6408 38.5 30.092 36.6563 33.3739 33.3744C36.6558 30.0925 38.4995 25.6413 38.4995 21C38.4995 16.3587 36.6558 11.9075 33.3739 8.62563C30.092 5.34374 25.6408 3.5 20.9995 3.5ZM20.9995 35H9.46702L11.0945 33.3725C11.2599 33.2104 11.3914 33.0171 11.4815 32.8039C11.5717 32.5906 11.6186 32.3615 11.6195 32.13C11.6129 31.6684 11.4242 31.2281 11.0945 30.905C8.80305 28.6161 7.37608 25.6034 7.05673 22.3804C6.73738 19.1573 7.54542 15.9233 9.34317 13.2292C11.1409 10.5351 13.8172 8.54763 16.9159 7.60545C20.0147 6.66328 23.3443 6.82466 26.3374 8.0621C29.3305 9.29954 31.802 11.5365 33.3308 14.3918C34.8596 17.2471 35.351 20.5442 34.7215 23.7213C34.0919 26.8983 32.3803 29.7588 29.8782 31.8154C27.3761 33.872 24.2384 34.9975 20.9995 35Z" fill="white"/>
</svg>

