<?xml version="1.0" encoding="utf-8"?>
<!-- Generator: Adobe Illustrator 26.1.0, SVG Export Plug-In . SVG Version: 6.00 Build 0)  -->
<svg version="1.1" id="Layer_1" xmlns="http://www.w3.org/2000/svg" xmlns:xlink="http://www.w3.org/1999/xlink" x="0px" y="0px"
	 viewBox="0 0 26 15" style="enable-background:new 0 0 26 15;" xml:space="preserve">
<path d="M0.7,0.8c1-1,2.3-1.1,3.5,0L13,9l8.8-8.3c1.2-1.1,2.6-1,3.5,0c1,1,0.9,2.6,0,3.6c-0.9,0.9-10.5,9.9-10.5,9.9
	c-0.2,0.2-0.5,0.4-0.8,0.5c-0.3,0.1-0.6,0.2-1,0.2c-0.3,0-0.7-0.1-1-0.2c-0.3-0.1-0.6-0.3-0.8-0.5c0,0-9.6-9-10.5-9.9
	C-0.2,3.4-0.3,1.7,0.7,0.8z"/>
</svg>
