<svg width="13" height="14" viewBox="0 0 13 14" fill="none" xmlns="http://www.w3.org/2000/svg">
<path d="M7.5819 14C7.45568 14 7.33287 13.9591 7.2319 13.8833L4.89856 12.1333C4.82612 12.079 4.76732 12.0085 4.72682 11.9275C4.68632 11.8465 4.66523 11.7572 4.66523 11.6667V8.38833L0.572565 3.78408C0.281901 3.45618 0.0921191 3.05131 0.0260278 2.61814C-0.0400635 2.18496 0.0203486 1.74192 0.200003 1.34226C0.379658 0.942594 0.670909 0.603318 1.03875 0.365205C1.4066 0.127092 1.83538 0.000276744 2.27356 0L10.5569 0C10.995 0.000513946 11.4237 0.12754 11.7914 0.365812C12.1591 0.604085 12.4502 0.943467 12.6296 1.34317C12.8091 1.74288 12.8693 2.18591 12.8031 2.61902C12.7368 3.05213 12.5469 3.45689 12.2561 3.78467L8.16523 8.38833V13.4167C8.16523 13.5714 8.10377 13.7197 7.99438 13.8291C7.88498 13.9385 7.73661 14 7.5819 14Z" fill="#E61C24"/>
</svg>
