<svg width="14" height="14" viewBox="0 0 14 14" fill="none" xmlns="http://www.w3.org/2000/svg">
<g clip-path="url(#clip0_1_350)">
<path d="M8.16668 14C8.04046 14 7.91765 13.9591 7.81668 13.8833L5.48334 12.1333C5.41089 12.079 5.35209 12.0085 5.31159 11.9275C5.27109 11.8465 5.25001 11.7572 5.25001 11.6667V8.38833L1.15734 3.78408C0.866679 3.45618 0.676897 3.05131 0.610806 2.61814C0.544714 2.18496 0.605126 1.74192 0.784781 1.34226C0.964435 0.942594 1.25569 0.603318 1.62353 0.365205C1.99137 0.127092 2.42016 0.000276744 2.85834 0L11.1417 0C11.5798 0.000513946 12.0085 0.12754 12.3762 0.365812C12.7439 0.604085 13.035 0.943467 13.2144 1.34317C13.3939 1.74288 13.4541 2.18591 13.3878 2.61902C13.3216 3.05213 13.1317 3.45689 12.8409 3.78467L8.75001 8.38833V13.4167C8.75001 13.5714 8.68855 13.7197 8.57916 13.8291C8.46976 13.9385 8.32139 14 8.16668 14Z" fill="white"/>
</g>
<defs>
<clipPath id="clip0_1_350">
<rect width="14" height="14" fill="white"/>
</clipPath>
</defs>
</svg>
