<svg width="110" height="103" viewBox="0 0 110 103" fill="none" xmlns="http://www.w3.org/2000/svg">
<g clip-path="url(#clip0_355_370)">
<path d="M3.37305 57.9947H2.39913C1.07587 57.9947 -0.000385523 56.9173 -0.000385523 55.5925L-0.000385523 52.5368C-0.000385523 51.2121 1.07587 50.1347 2.39913 50.1347H3.37305L3.37305 57.9982V57.9947Z" fill="#E61C24"/>
<path d="M55.0508 19.7614C55.0508 19.7614 3.37305 17.0978 3.37305 51.9434L3.37305 56.1825C3.37305 91.2118 54.9485 88.368 54.9485 88.368C54.9485 88.368 106.626 91.0316 106.626 56.1825V51.9434C106.626 16.9141 55.0508 19.7579 55.0508 19.7579V19.7614Z" fill="#F2F2F2"/>
<path d="M55.0403 26.8936C55.0403 26.8936 14.1074 24.7847 14.1074 52.3849V55.7408C14.1074 83.4859 54.9591 81.2321 54.9591 81.2321C54.9591 81.2321 95.892 83.341 95.892 55.7408V52.3849C95.892 24.6398 55.0403 26.8936 55.0403 26.8936Z" fill="#1D1D1B" stroke="#1D1D1B" stroke-miterlimit="10"/>
<path d="M61.4068 88.4245H48.5977V93.1052H61.4068V88.4245Z" fill="#D9D9D9"/>
<path d="M106.627 50.1346H107.601C108.924 50.1346 110 51.2121 110 52.5368V55.5925C110 56.9172 108.924 57.9947 107.601 57.9947H106.627V50.1311V50.1346Z" fill="#E61C24"/>
<path d="M37.9055 38.9433C33.5264 38.3039 29.2672 38.961 25.3257 41.0099C23.0497 42.1933 25.061 45.6341 27.337 44.4542C30.2412 42.9458 33.5969 42.317 36.8469 42.7903C37.9196 42.9458 38.9747 42.5254 39.2958 41.3985C39.564 40.4624 38.9676 39.1023 37.9055 38.9469V38.9433Z" fill="#F2F2F2"/>
<path d="M72.0949 38.9433C76.474 38.3039 80.7331 38.961 84.6747 41.0099C86.9507 42.1933 84.9393 45.6341 82.6633 44.4542C79.7592 42.9458 76.4034 42.317 73.1535 42.7903C72.0808 42.9458 71.0257 42.5254 70.7046 41.3985C70.4364 40.4624 71.0328 39.1023 72.0949 38.9469V38.9433Z" fill="#F2F2F2"/>
<path d="M45.1004 69.9914C47.4541 73.0436 50.7993 75.0077 54.695 75.2267C58.4389 75.4351 62.1899 73.7607 64.6671 70.977C66.3679 69.0658 63.5626 66.2362 61.8512 68.158C58.3225 72.118 51.9108 72.3476 48.5409 67.9778C47.8775 67.1194 46.8366 66.6813 45.8168 67.2642C44.9734 67.7447 44.4476 69.14 45.104 69.9914H45.1004Z" fill="#F2F2F2"/>
<path d="M30.6787 50.7917V60.9055C30.6787 64.3145 35.9718 64.3215 35.9718 60.9055V50.7917C35.9718 47.3827 30.6787 47.3756 30.6787 50.7917Z" fill="#F2F2F2"/>
<path d="M74.0283 50.7917V60.9055C74.0283 64.3145 79.3214 64.3215 79.3214 60.9055V50.7917C79.3214 47.3827 74.0283 47.3756 74.0283 50.7917Z" fill="#F2F2F2"/>
<path d="M57.7221 20.973H52.2773L52.9831 6.77551L57.0164 6.77551L57.7221 20.973Z" fill="#D9D9D9"/>
<path d="M55.0014 8.344C57.303 8.344 59.1688 6.47613 59.1688 4.172C59.1688 1.86787 57.303 0 55.0014 0C52.6998 0 50.834 1.86787 50.834 4.172C50.834 6.47613 52.6998 8.344 55.0014 8.344Z" fill="#E61C24"/>
<path d="M13.2717 103C8.86791 103 5.29688 96.5 5.29688 93.9813C5.29688 91.466 8.86791 89.4242 13.2717 89.4242C17.6755 89.4242 21.2466 91.466 21.2466 93.9813C21.2466 96.4965 17.6755 103 13.2717 103Z" fill="#E61C24"/>
<path d="M97.011 103C92.6072 103 89.0361 96.5 89.0361 93.9813C89.0361 91.466 92.6072 89.4242 97.011 89.4242C101.415 89.4242 104.986 91.466 104.986 93.9813C104.986 96.4965 101.415 103 97.011 103Z" fill="#E61C24"/>
</g>
<defs>
<clipPath id="clip0_355_370">
<rect width="110" height="103" fill="white"/>
</clipPath>
</defs>
</svg>
