<svg width="26" height="15" viewBox="0 0 26 15" fill="none" xmlns="http://www.w3.org/2000/svg">
<path d="M0.710446 0.767157C1.68773 -0.216748 3.0483 -0.293961 4.243 0.767157L13.0027 9.03329L21.7623 0.767157C22.957 -0.293962 24.3198 -0.216749 25.2904 0.767156C26.2677 1.74886 26.2049 3.40782 25.2904 4.32995C24.3803 5.25209 14.7667 14.2617 14.7667 14.2617C14.5378 14.4952 14.2634 14.6809 13.9599 14.8078C13.6564 14.9346 13.3301 15 13.0004 15C12.6707 15 12.3444 14.9346 12.0409 14.8078C11.7375 14.6809 11.4631 14.4952 11.2341 14.2617C11.2341 14.2617 1.62496 5.25209 0.710446 4.32995C-0.206315 3.40782 -0.266834 1.74886 0.710446 0.767157Z" fill="white"/>
</svg>
