<svg width="26" height="26" viewBox="0 0 26 26" fill="none" xmlns="http://www.w3.org/2000/svg">
<g clip-path="url(#clip0_358_122)">
<path d="M3.79167 26H20.0417C21.0488 25.9971 22.0137 25.5948 22.7246 24.8813C23.4354 24.1678 23.8342 23.2014 23.8333 22.1942V14.0291C23.8333 13.7418 23.7192 13.4663 23.516 13.2631C23.3129 13.0599 23.0373 12.9458 22.75 12.9458C22.4627 12.9458 22.1871 13.0599 21.984 13.2631C21.7808 13.4663 21.6667 13.7418 21.6667 14.0291V22.1942C21.6681 22.6269 21.4978 23.0425 21.1932 23.3498C20.8885 23.6571 20.4744 23.831 20.0417 23.8333H3.79167C3.35896 23.831 2.94483 23.6571 2.64018 23.3498C2.33552 23.0425 2.16523 22.6269 2.16667 22.1942V5.97238C2.16523 5.53966 2.33552 5.12405 2.64018 4.81675C2.94483 4.50946 3.35896 4.33559 3.79167 4.33329H11.9167C12.204 4.33329 12.4795 4.21916 12.6827 4.01599C12.8859 3.81283 13 3.53728 13 3.24996C13 2.96264 12.8859 2.68709 12.6827 2.48393C12.4795 2.28076 12.204 2.16663 11.9167 2.16663H3.79167C2.7845 2.1695 1.81961 2.57183 1.10875 3.28533C0.397888 3.99882 -0.000863515 4.9652 1.40412e-06 5.97238V22.1942C-0.000863515 23.2014 0.397888 24.1678 1.10875 24.8813C1.81961 25.5948 2.7845 25.9971 3.79167 26Z" fill="white"/>
<path d="M10.2429 11.4227L9.38811 15.3379C9.34942 15.5154 9.35603 15.6999 9.40734 15.8743C9.45864 16.0486 9.55299 16.2073 9.68169 16.3356C9.81217 16.4607 9.97088 16.5525 10.1444 16.6032C10.3179 16.654 10.501 16.6621 10.6784 16.627L14.5849 15.7701C14.7877 15.7256 14.9735 15.6237 15.12 15.4765L24.9935 5.60302C25.2954 5.30122 25.5348 4.94292 25.6982 4.54858C25.8615 4.15423 25.9456 3.73157 25.9456 3.30473C25.9456 2.87789 25.8615 2.45523 25.6982 2.06088C25.5348 1.66654 25.2954 1.30824 24.9935 1.00644C24.3747 0.415086 23.5517 0.085083 22.6958 0.085083C21.8398 0.085083 21.0168 0.415086 20.398 1.00644L10.5397 10.8897C10.3917 11.0353 10.2887 11.2203 10.2429 11.4227ZM21.9299 2.53936C22.136 2.34191 22.4104 2.23168 22.6958 2.23168C22.9812 2.23168 23.2556 2.34191 23.4617 2.53936C23.6621 2.7437 23.7744 3.01851 23.7744 3.30473C23.7744 3.59095 23.6621 3.86576 23.4617 4.07011L22.6958 4.83602L21.1639 3.30419L21.9299 2.53936ZM12.2882 12.1962L19.6267 4.83927L21.1434 6.36352L13.8016 13.7226L11.857 14.1494L12.2882 12.1962Z" fill="white"/>
</g>
<defs>
<clipPath id="clip0_358_122">
<rect width="26" height="26" fill="white"/>
</clipPath>
</defs>
</svg>
