<?xml version="1.0" encoding="utf-8"?>
<!-- Generator: Adobe Illustrator 26.1.0, SVG Export Plug-In . SVG Version: 6.00 Build 0)  -->
<svg version="1.1" id="Laag_1" xmlns="http://www.w3.org/2000/svg" xmlns:xlink="http://www.w3.org/1999/xlink" x="0px" y="0px"
	 viewBox="0 0 500 300" style="enable-background:new 0 0 500 300;" xml:space="preserve">
<style type="text/css">
	.st0{fill:#DF1C24;}
</style>
<g>
	<path class="st0" d="M83.9,220.4c8.8,0,15.9-2.5,21.4-7.6c5.4-5,8.2-12.1,8.2-21.2c0-9.1-2.7-16.2-8.2-21.2
		c-5.4-5-12.6-7.6-21.4-7.6c-8.8,0-15.9,2.5-21.4,7.6c-5.4,5-8.2,12.1-8.2,21.2c0,9.1,2.7,16.2,8.2,21.2
		C67.9,217.9,75.1,220.4,83.9,220.4 M83.9,256.4c-9.3,0-17.7-1.7-25.2-5c-7.5-3.4-14-8-19.3-13.8c-5.4-5.8-9.5-12.7-12.4-20.6
		c-2.9-7.9-4.3-16.4-4.3-25.3c0-9,1.4-17.4,4.3-25.3c2.9-7.9,7-14.8,12.4-20.6c5.4-5.8,11.8-10.4,19.3-13.8c7.5-3.4,15.9-5,25.2-5
		c9.3,0,17.7,1.7,25.2,5c7.5,3.4,14,8,19.3,13.8c5.4,5.8,9.5,12.7,12.4,20.6c2.9,7.9,4.3,16.4,4.3,25.3c0,9-1.4,17.4-4.3,25.3
		c-2.9,7.9-7,14.8-12.4,20.6c-5.4,5.8-11.8,10.4-19.3,13.8C101.5,254.7,93.1,256.4,83.9,256.4"/>
	<path class="st0" d="M211.6,190c0,11.5,3.3,20.8,9.9,27.9c6.6,7.1,15.8,10.7,27.8,10.7c11.9,0,21.2-3.6,27.8-10.7
		c6.6-7.1,9.9-16.4,9.9-27.9c0-11.5-3.3-20.8-9.9-27.9c-6.6-7.1-15.8-10.7-27.8-10.7c-11.9,0-21.2,3.6-27.8,10.7
		C214.9,169.2,211.6,178.5,211.6,190 M168.3,29.2h47v101h0.6c5.4-7.3,12.4-12.5,20.9-15.5c8.5-3,17.6-4.5,27.4-4.5
		c10.9,0,20.6,2.2,29.2,6.7c8.6,4.5,15.8,10.5,21.8,18c6,7.5,10.6,16.1,13.8,25.9c3.2,9.7,4.9,19.9,4.9,30.6
		c0,11.5-1.8,22.1-5.3,31.7c-3.6,9.6-8.6,17.9-15.2,24.9c-6.6,7-14.5,12.4-23.7,16.3c-9.2,3.9-19.4,5.8-30.7,5.8
		c-5.4,0-10.6-0.7-15.4-2.2c-4.8-1.5-9.3-3.3-13.3-5.6c-4.1-2.3-7.6-4.9-10.7-7.7c-3-2.8-5.5-5.6-7.4-8.3h-0.6v20.1h-43.3V29.2z"/>
	<path class="st0" d="M423.1,177.5c0,2.7,0.1,6.1,0.4,10.2c0.2,4.1,0.9,8,2,11.8c1.1,3.8,2.8,7,5,9.6c2.2,2.6,5.4,4,9.4,4
		c4.3,0,7.5-1.8,9.6-5.5c2.1-3.7,3.1-7.5,3.1-11.5c0-3.5-0.5-6.9-1.4-10.2c-1-3.3-2.3-6.2-4.1-8.8c-1.8-2.6-4-4.6-6.7-6.1
		c-2.7-1.5-5.9-2.3-9.6-2.3h-7.7V177.5z M459.6,168.6v0.5c6.2,4,10.7,9.3,13.4,16c2.7,6.6,4.1,13.6,4.1,21c0,5.4-0.8,10.7-2.3,15.7
		c-1.5,5-3.8,9.5-6.8,13.3c-3,3.8-6.8,6.9-11.3,9.1c-4.5,2.2-9.7,3.4-15.6,3.4c-6.7,0-12.4-1.2-17-3.7c-4.6-2.5-8.5-5.8-11.5-10.1
		c-3-4.2-5.4-9.1-7.1-14.5c-1.7-5.4-2.9-11.1-3.7-16.9c-0.8-5.8-1.3-11.7-1.4-17.5c-0.2-5.8-0.2-11.2-0.2-16.2
		c-6.4,0-11.5,2.3-15.2,6.8c-3.8,4.6-5.6,10-5.6,16.2c0,5.9,1.2,11.3,3.7,16.2c2.5,4.9,5.9,9.2,10.2,13.1l-19.7,19.2
		c-6.2-6.7-10.9-14.6-14-23.5c-3.1-9-4.7-18.2-4.7-27.8c0-10.6,1.3-19.2,4-26c2.6-6.8,6.5-12.2,11.6-16.3c5.1-4.1,11.4-6.9,18.8-8.5
		c7.4-1.6,16-2.4,25.8-2.4h59.3v33.1H459.6z"/>
</g>
</svg>
