<svg width="89" height="77" viewBox="0 0 89 77" fill="none" xmlns="http://www.w3.org/2000/svg">
<g clip-path="url(#clip0_351_576)">
<path d="M86.2705 30.2664L87.0585 30.2664C88.1291 30.2664 88.9999 31.1347 88.9999 32.2022L88.9999 34.6645C88.9999 35.732 88.1291 36.6002 87.0585 36.6002L86.2705 36.6002L86.2705 30.2636L86.2705 30.2664Z" fill="#E61C24"/>
<path d="M44.4585 61.0758C44.4585 61.0758 86.2705 63.2222 86.2705 35.1427L86.2705 31.7268C86.2705 3.4993 44.5413 5.79086 44.5413 5.79086C44.5413 5.79086 2.72933 3.64448 2.72932 31.7268L2.72932 35.1427C2.72932 63.3702 44.4585 61.0786 44.4585 61.0786L44.4585 61.0758Z" fill="#F2F2F2"/>
<path d="M44.4675 55.3284C44.4675 55.3284 77.5859 57.0278 77.5859 34.7869L77.5859 32.0826C77.5859 9.72494 44.5332 11.5411 44.5332 11.5411C44.5332 11.5411 11.4148 9.84165 11.4148 32.0826L11.4148 34.7869C11.4148 57.1445 44.4675 55.3284 44.4675 55.3284Z" fill="#1D1D1B" stroke="#1D1D1B" stroke-miterlimit="10"/>
<path d="M39.3169 5.74533L49.6807 5.74533L49.6807 1.97351L39.3169 1.97351L39.3169 5.74533Z" fill="#D9D9D9"/>
<path d="M2.72949 36.6002L1.94151 36.6002C0.87087 36.6002 7.9437e-05 35.732 7.95303e-05 34.6645L7.97456e-05 32.2022C7.98389e-05 31.1347 0.870871 30.2664 1.94151 30.2664L2.72949 30.2664L2.72949 36.6031L2.72949 36.6002Z" fill="#E61C24"/>
<path d="M58.3317 45.6184C61.8748 46.1337 65.3208 45.6042 68.5099 43.9532C70.3513 42.9995 68.724 40.2269 66.8825 41.1777C64.5328 42.3932 61.8177 42.8999 59.1882 42.5184C58.3202 42.3932 57.4666 42.7319 57.2068 43.64C56.9898 44.3944 57.4723 45.4903 58.3317 45.6156L58.3317 45.6184Z" fill="#F2F2F2"/>
<path d="M30.6691 45.6184C27.126 46.1337 23.6799 45.6042 20.4909 43.9531C18.6494 42.9995 20.2767 40.2269 22.1182 41.1777C24.4679 42.3932 27.1831 42.8999 29.8126 42.5184C30.6805 42.3932 31.5341 42.7319 31.7939 43.64C32.0109 44.3944 31.5284 45.4903 30.6691 45.6156L30.6691 45.6184Z" fill="#F2F2F2"/>
<path d="M52.51 20.5992C50.6057 18.1397 47.8991 16.5569 44.7471 16.3804C41.7179 16.2125 38.683 17.5618 36.6788 19.805C35.3027 21.345 37.5724 23.6252 38.9571 22.0766C41.8121 18.8855 46.9997 18.7005 49.7263 22.2218C50.263 22.9135 51.1053 23.2665 51.9304 22.7968C52.6127 22.4096 53.0381 21.2852 52.5071 20.5992L52.51 20.5992Z" fill="#F2F2F2"/>
<path d="M64.1787 36.0707L64.1787 27.9208C64.1787 25.1737 59.8962 25.168 59.8962 27.9208L59.8962 36.0707C59.8962 38.8178 64.1787 38.8235 64.1787 36.0707Z" fill="#F2F2F2"/>
<path d="M29.1045 36.0707L29.1045 27.9208C29.1045 25.1737 24.8219 25.168 24.8219 27.9208L24.8219 36.0707C24.8219 38.8178 29.1045 38.8235 29.1045 36.0707Z" fill="#F2F2F2"/>
<path d="M42.2978 60.0994L46.7031 60.0994L46.1321 71.5401L42.8688 71.5401L42.2978 60.0994Z" fill="#D9D9D9"/>
<path d="M44.4983 70.2762C42.6361 70.2762 41.1265 71.7814 41.1265 73.6381C41.1265 75.4948 42.6361 77 44.4983 77C46.3605 77 47.8701 75.4948 47.8701 73.6381C47.8701 71.7814 46.3605 70.2762 44.4983 70.2762Z" fill="#E61C24"/>
<path d="M78.2625 -6.00001C81.8255 -6.00001 84.7148 -0.76216 84.7148 1.26751C84.7148 3.29433 81.8255 4.9397 78.2625 4.9397C74.6994 4.9397 71.8101 3.29433 71.8101 1.26751C71.8101 -0.759314 74.6994 -6.00001 78.2625 -6.00001Z" fill="#E61C24"/>
<path d="M10.5095 -6.00001C14.0726 -6.00001 16.9619 -0.76216 16.9619 1.26751C16.9619 3.29433 14.0726 4.9397 10.5095 4.9397C6.94645 4.9397 4.05716 3.29433 4.05716 1.26751C4.05716 -0.759314 6.94645 -6.00001 10.5095 -6.00001Z" fill="#E61C24"/>
</g>
<defs>
<clipPath id="clip0_351_576">
<rect width="89" height="83" fill="white" transform="translate(89 77) rotate(-180)"/>
</clipPath>
</defs>
</svg>
