<svg width="268" height="392" viewBox="0 0 268 392" fill="none" xmlns="http://www.w3.org/2000/svg">
<ellipse cx="152.5" cy="369.5" rx="115.5" ry="22.5" fill="black" fill-opacity="0.2"/>
<g clip-path="url(#clip0_295_253)">
<path d="M53.4355 111.814H51.558C49.007 111.814 46.9321 109.736 46.9321 107.182V101.291C46.9321 98.7367 49.007 96.6594 51.558 96.6594H53.4355V111.82V111.814Z" fill="#E61C24"/>
<path d="M153.061 38.0998C153.061 38.0998 53.4355 32.9644 53.4355 100.153V108.326C53.4355 175.863 152.864 170.38 152.864 170.38C152.864 170.38 252.49 175.515 252.49 108.326V100.153C252.49 32.6171 153.061 38.0998 153.061 38.0998Z" fill="#F2F2F2"/>
<path d="M153.04 51.8509C153.04 51.8509 74.1289 47.7848 74.1289 100.998V107.468C74.1289 160.961 152.884 156.615 152.884 156.615C152.884 156.615 231.796 160.681 231.796 107.468V100.998C231.796 47.5055 153.04 51.8509 153.04 51.8509Z" fill="#1D1D1B" stroke="#1D1D1B" stroke-miterlimit="10"/>
<path d="M165.313 170.482H140.619V179.506H165.313V170.482Z" fill="#D9D9D9"/>
<path d="M252.497 96.6594H254.375C256.926 96.6594 259 98.7367 259 101.291V107.182C259 109.736 256.926 111.814 254.375 111.814H252.497V96.6526V96.6594Z" fill="#E61C24"/>
<path d="M198.905 313.694H174.211V330.353H198.905V313.694Z" fill="#D9D9D9"/>
<path d="M203.558 369.113H169.551C168.252 369.113 167.19 368.051 167.19 366.75L171.122 332.703C171.122 331.402 172.184 330.339 173.483 330.339H199.626C200.925 330.339 201.986 331.402 201.986 332.703L205.918 366.75C205.918 368.051 204.857 369.113 203.558 369.113Z" fill="#E61C24"/>
<path d="M131.728 313.694H107.034V330.353H131.728V313.694Z" fill="#D9D9D9"/>
<path d="M136.381 369.113H102.374C101.075 369.113 100.014 368.051 100.014 366.75L103.946 332.703C103.946 331.402 105.007 330.339 106.306 330.339H132.449C133.748 330.339 134.81 331.402 134.81 332.703L138.742 366.75C138.742 368.051 137.68 369.113 136.381 369.113Z" fill="#E61C24"/>
<path d="M247.612 285.796C240.374 288.739 232.306 284.053 231.265 276.295C227.877 250.939 218.116 226.856 202.884 206.314C198.224 200.034 200.741 191.037 207.986 188.095C213.034 186.045 218.83 187.666 222.082 192.052L225.762 197.017C240.993 217.559 250.762 241.642 254.143 266.999L254.959 273.128C255.68 278.536 252.66 283.746 247.605 285.803L247.612 285.796Z" fill="#F2F2F2"/>
<path d="M212.068 213.581C219.342 213.581 225.239 207.678 225.239 200.395C225.239 193.113 219.342 187.209 212.068 187.209C204.795 187.209 198.898 193.113 198.898 200.395C198.898 207.678 204.795 213.581 212.068 213.581Z" fill="#D9D9D9"/>
<path d="M254.048 280.811C252.953 278.073 247.783 277.576 242.511 279.701C237.946 281.533 234.803 284.727 234.742 287.322C234.742 287.322 227.313 303.348 232.245 308.906C234.517 311.473 236.579 305.466 238.966 299.643C239.619 298.049 242.075 296.278 243.681 296.891C251.021 299.677 237.123 308.34 236.443 312.631C234.987 321.792 254.749 313.837 256.504 300.678C258.068 288.97 255.626 283.195 254.055 280.811H254.048Z" fill="#E61C24"/>
<path d="M6.5036 225.221C4.47639 217.668 10.1158 210.223 17.9322 210.148C43.4832 209.896 68.558 203.154 90.7893 190.54C97.592 186.685 106.197 190.288 108.225 197.848C109.64 203.12 107.313 208.677 102.572 211.368L97.1975 214.412C74.9594 227.019 49.8914 233.768 24.3403 234.02L18.1635 234.082C12.7145 234.136 7.91856 230.492 6.5036 225.221Z" fill="#F2F2F2"/>
<path d="M95.5236 213.581C102.797 213.581 108.694 207.678 108.694 200.395C108.694 193.113 102.797 187.209 95.5236 187.209C88.25 187.209 82.3535 193.113 82.3535 200.395C82.3535 207.678 88.25 213.581 95.5236 213.581Z" fill="#D9D9D9"/>
<path d="M211.816 313.694H94.1154C89.6256 313.694 85.9521 310.016 85.9521 305.521L99.5576 187.686C99.5576 183.191 103.231 179.513 107.721 179.513H198.204C202.694 179.513 206.367 183.191 206.367 187.686L219.973 305.521C219.973 310.016 216.299 313.694 211.809 313.694H211.816Z" fill="#F2F2F2"/>
<path d="M120.013 75.0827C111.571 73.8499 103.36 75.1167 95.7618 79.067C91.374 81.3486 95.2516 87.9824 99.6393 85.7076C105.238 82.7993 111.707 81.587 117.973 82.4997C120.041 82.7993 122.075 81.9889 122.694 79.8162C123.211 78.0113 122.061 75.3892 120.013 75.0895V75.0827Z" fill="#F2F2F2"/>
<path d="M185.925 75.0827C194.367 73.8499 202.578 75.1167 210.176 79.067C214.564 81.3486 210.687 87.9824 206.299 85.7076C200.7 82.7993 194.231 81.587 187.966 82.4997C185.897 82.7993 183.863 81.9889 183.244 79.8162C182.727 78.0113 183.877 75.3892 185.925 75.0895V75.0827Z" fill="#F2F2F2"/>
<path d="M133.884 134.943C138.421 140.828 144.87 144.615 152.381 145.037C159.598 145.439 166.829 142.21 171.605 136.843C174.884 133.159 169.476 127.703 166.176 131.408C159.374 139.043 147.013 139.486 140.517 131.061C139.238 129.406 137.231 128.561 135.265 129.685C133.639 130.611 132.625 133.302 133.891 134.943H133.884Z" fill="#F2F2F2"/>
<path d="M106.082 97.9263V117.426C106.082 123.998 116.286 124.012 116.286 117.426V97.9263C116.286 91.3538 106.082 91.3402 106.082 97.9263Z" fill="#F2F2F2"/>
<path d="M189.653 97.9263V117.426C189.653 123.998 199.857 124.012 199.857 117.426V97.9263C199.857 91.3538 189.653 91.3402 189.653 97.9263Z" fill="#F2F2F2"/>
<path d="M158.217 40.436H147.721L149.081 13.0632H156.857L158.217 40.436Z" fill="#D9D9D9"/>
<path d="M152.966 16.0872C157.403 16.0872 161 12.486 161 8.0436C161 3.60124 157.403 0 152.966 0C148.529 0 144.932 3.60124 144.932 8.0436C144.932 12.486 148.529 16.0872 152.966 16.0872Z" fill="#E61C24"/>
<path d="M186.32 193.128H119.606C115.097 193.128 111.442 196.787 111.442 201.301V231.909C111.442 236.423 115.097 240.082 119.606 240.082H186.32C190.828 240.082 194.483 236.423 194.483 231.909V201.301C194.483 196.787 190.828 193.128 186.32 193.128Z" fill="white"/>
<path d="M132.892 225.173C133.953 225.173 134.817 224.867 135.477 224.26C136.136 223.647 136.463 222.796 136.463 221.686C136.463 220.576 136.136 219.724 135.477 219.111C134.817 218.498 133.96 218.199 132.892 218.199C131.824 218.199 130.966 218.505 130.307 219.111C129.647 219.724 129.32 220.576 129.32 221.686C129.32 222.796 129.647 223.647 130.307 224.26C130.966 224.873 131.824 225.173 132.892 225.173ZM132.892 229.532C131.769 229.532 130.756 229.328 129.844 228.919C128.932 228.51 128.157 227.959 127.511 227.25C126.864 226.542 126.361 225.711 126.014 224.751C125.667 223.79 125.49 222.769 125.49 221.686C125.49 220.603 125.667 219.581 126.014 218.621C126.361 217.661 126.858 216.83 127.511 216.121C128.157 215.413 128.939 214.855 129.844 214.453C130.756 214.044 131.769 213.84 132.892 213.84C134.014 213.84 135.028 214.044 135.939 214.453C136.851 214.861 137.626 215.42 138.273 216.121C138.919 216.83 139.422 217.661 139.769 218.621C140.116 219.581 140.293 220.603 140.293 221.686C140.293 222.769 140.116 223.79 139.769 224.751C139.422 225.711 138.926 226.542 138.273 227.25C137.626 227.959 136.844 228.517 135.939 228.919C135.028 229.328 134.014 229.532 132.892 229.532Z" fill="#E61C24"/>
<path d="M148.334 221.502C148.334 222.891 148.735 224.022 149.531 224.88C150.327 225.738 151.443 226.168 152.885 226.168C154.327 226.168 155.443 225.738 156.239 224.88C157.035 224.022 157.436 222.891 157.436 221.502C157.436 220.113 157.035 218.982 156.239 218.124C155.443 217.266 154.327 216.837 152.885 216.837C151.443 216.837 150.327 217.266 149.531 218.124C148.735 218.982 148.334 220.113 148.334 221.502ZM143.103 202.03H148.79V214.249H148.864C149.524 213.363 150.361 212.737 151.388 212.369C152.409 212.001 153.518 211.817 154.708 211.817C156.021 211.817 157.198 212.09 158.232 212.634C159.266 213.179 160.143 213.908 160.864 214.814C161.586 215.726 162.143 216.769 162.531 217.947C162.926 219.125 163.116 220.358 163.116 221.645C163.116 223.035 162.898 224.315 162.47 225.48C162.041 226.644 161.429 227.652 160.633 228.497C159.837 229.348 158.885 230.002 157.769 230.472C156.654 230.942 155.422 231.173 154.055 231.173C153.395 231.173 152.776 231.085 152.198 230.908C151.613 230.731 151.082 230.506 150.586 230.227C150.096 229.948 149.66 229.641 149.3 229.294C148.932 228.953 148.633 228.619 148.409 228.286H148.334V230.717H143.103V202.023V202.03Z" fill="#E61C24"/>
<path d="M173.912 219.99C173.912 220.317 173.925 220.732 173.953 221.223C173.98 221.72 174.061 222.19 174.197 222.646C174.333 223.103 174.538 223.491 174.81 223.811C175.082 224.131 175.456 224.288 175.939 224.288C176.463 224.288 176.85 224.063 177.102 223.62C177.354 223.178 177.476 222.708 177.476 222.224C177.476 221.795 177.415 221.386 177.299 220.991C177.184 220.596 177.021 220.242 176.803 219.929C176.592 219.622 176.32 219.37 175.993 219.186C175.667 219.003 175.279 218.907 174.83 218.907H173.898V219.983L173.912 219.99ZM178.32 218.914V218.975C179.075 219.459 179.619 220.106 179.946 220.91C180.272 221.713 180.442 222.565 180.442 223.45C180.442 224.111 180.347 224.744 180.163 225.35C179.98 225.963 179.701 226.501 179.333 226.964C178.966 227.428 178.51 227.795 177.966 228.068C177.422 228.34 176.796 228.476 176.082 228.476C175.272 228.476 174.585 228.327 174.021 228.027C173.463 227.727 172.993 227.319 172.626 226.808C172.259 226.297 171.973 225.711 171.769 225.051C171.565 224.39 171.415 223.709 171.32 223C171.225 222.292 171.163 221.584 171.143 220.882C171.123 220.174 171.116 219.52 171.116 218.921C170.34 218.921 169.728 219.2 169.272 219.752C168.816 220.303 168.592 220.957 168.592 221.713C168.592 222.469 168.742 223.082 169.041 223.675C169.34 224.267 169.755 224.792 170.272 225.262L167.891 227.584C167.136 226.774 166.572 225.82 166.191 224.737C165.816 223.654 165.626 222.531 165.626 221.366C165.626 220.085 165.782 219.037 166.102 218.212C166.422 217.388 166.891 216.728 167.51 216.237C168.129 215.74 168.891 215.4 169.789 215.209C170.687 215.018 171.728 214.916 172.912 214.916H180.082V218.928H178.313L178.32 218.914Z" fill="#E61C24"/>
<path d="M135.694 361.635H103.061C100.476 361.635 98.3809 363.732 98.3809 366.318C98.3809 368.904 100.476 371 103.061 371H135.694C138.279 371 140.374 368.904 140.374 366.318C140.374 363.732 138.279 361.635 135.694 361.635Z" fill="#CE1523"/>
<path d="M202.871 361.635H170.238C167.653 361.635 165.558 363.732 165.558 366.318C165.558 368.904 167.653 371 170.238 371H202.871C205.455 371 207.551 368.904 207.551 366.318C207.551 363.732 205.455 361.635 202.871 361.635Z" fill="#CE1523"/>
<path d="M9.94797 231.15C14.7814 230.793 18.1932 223.631 17.5684 215.153C16.9435 206.675 12.5188 200.091 7.68531 200.448C2.85187 200.805 -0.559894 207.968 0.0649211 216.446C0.689736 224.924 5.11453 231.507 9.94797 231.15Z" fill="#E61C24"/>
<path d="M13.7627 220.096C15.9134 219.937 17.2801 214.696 16.8154 208.39C16.3506 202.085 14.2304 197.101 12.0797 197.26C9.92903 197.419 8.56229 202.66 9.02704 208.966C9.49178 215.272 11.612 220.255 13.7627 220.096Z" fill="#CE1523"/>
<path d="M14.4893 218.718C16.64 218.559 18.0067 213.318 17.5419 207.012C17.0772 200.706 14.957 195.723 12.8063 195.882C10.6556 196.041 9.28886 201.282 9.7536 207.588C10.2183 213.894 12.3386 218.877 14.4893 218.718Z" fill="#E61C24"/>
</g>
<defs>
<clipPath id="clip0_295_253">
<rect width="259" height="371" fill="white"/>
</clipPath>
</defs>
</svg>
